<svg width="16" height="16" viewBox="0 0 16 16" fill="none" xmlns="http://www.w3.org/2000/svg">
<path d="M7.31217 14.4167C7.31217 14.037 7.61998 13.7292 7.99967 13.7292H13.4997C13.6262 13.7292 13.7288 13.6266 13.7288 13.5L13.7288 2.50004C13.7288 2.37348 13.6262 2.27087 13.4997 2.27087L7.99967 2.27087C7.61998 2.27087 7.31217 1.96307 7.31217 1.58337C7.31217 1.20368 7.61998 0.895874 7.99967 0.895874H13.4997C14.3856 0.895874 15.1038 1.61408 15.1038 2.50004V13.5C15.1038 14.386 14.3856 15.1042 13.4997 15.1042H7.99967C7.61998 15.1042 7.31217 14.7964 7.31217 14.4167Z" fill="black"/>
<path d="M0.208008 9.02233C0.208008 9.52859 0.618413 9.93899 1.12467 9.93899H5.57599C5.59702 10.2648 5.62333 10.5903 5.65493 10.9155L5.68212 11.1953C5.72633 11.6502 6.20938 11.9226 6.62153 11.7251C8.29712 10.9221 9.814 9.82318 11.0992 8.48129L11.1267 8.45262C11.3715 8.19699 11.3715 7.79385 11.1267 7.53821L11.0992 7.50954C9.814 6.16766 8.29712 5.06878 6.62153 4.26577C6.20938 4.06824 5.72633 4.34067 5.68212 4.79556L5.65493 5.07533C5.62333 5.40049 5.59702 5.72605 5.57599 6.05185L1.12467 6.05185C0.618414 6.05185 0.208008 6.46226 0.208008 6.96852V9.02233Z" fill="black"/>
</svg>
