<svg width="34" height="31" viewBox="0 0 34 31" fill="none" xmlns="http://www.w3.org/2000/svg">
<path d="M13.6667 0.25C10.2149 0.25 7.41667 3.04822 7.41667 6.5C7.41667 9.95178 10.2149 12.75 13.6667 12.75C17.1184 12.75 19.9167 9.95178 19.9167 6.5C19.9167 3.04822 17.1184 0.25 13.6667 0.25Z" fill="#299764"/>
<path d="M7 16.0833C3.54822 16.0833 0.75 18.8816 0.75 22.3333V24.3138C0.75 25.5692 1.65981 26.6396 2.89879 26.8419C6.58334 27.4434 10.3057 27.7342 14.0268 27.7141C14.287 27.7127 14.4443 27.4249 14.317 27.198C13.3721 25.5129 12.8333 23.5694 12.8333 21.5C12.8333 20.1882 13.0498 18.927 13.4491 17.7501C13.5241 17.5289 13.3636 17.2937 13.1303 17.2834C12.0439 17.2351 10.9624 17.0401 9.91598 16.6984L8.47345 16.2274C8.18116 16.132 7.8756 16.0833 7.56812 16.0833H7Z" fill="#299764"/>
<path d="M25.75 19C25.75 18.3096 25.1904 17.75 24.5 17.75C23.8096 17.75 23.25 18.3096 23.25 19V21.9545C23.25 22.3545 23.4414 22.7302 23.7648 22.9655L25.4315 24.1776C25.9898 24.5836 26.7715 24.4602 27.1776 23.9019C27.5836 23.3436 27.4602 22.5618 26.9019 22.1557L25.75 21.318V19Z" fill="#299764"/>
<path fill-rule="evenodd" clip-rule="evenodd" d="M24.5 30.6667C29.5626 30.6667 33.6667 26.5626 33.6667 21.5C33.6667 16.4374 29.5626 12.3333 24.5 12.3333C19.4374 12.3333 15.3333 16.4374 15.3333 21.5C15.3333 26.5626 19.4374 30.6667 24.5 30.6667ZM24.5 28.1667C28.1819 28.1667 31.1667 25.1819 31.1667 21.5C31.1667 17.8181 28.1819 14.8333 24.5 14.8333C20.8181 14.8333 17.8333 17.8181 17.8333 21.5C17.8333 25.1819 20.8181 28.1667 24.5 28.1667Z" fill="#299764"/>
</svg>
