<svg width="34" height="29" fill="none" xmlns="http://www.w3.org/2000/svg"><path fill-rule="evenodd" clip-rule="evenodd" d="m17 .25 12.123.342a4.307 4.307 0 0 1 4.157 3.816 62.39 62.39 0 0 1 0 14.184 4.307 4.307 0 0 1-4.157 3.816l-10.04.284v3.391h6.25a1.25 1.25 0 1 1 0 2.5H8.667a1.25 1.25 0 0 1 0-2.5h6.25v-3.391l-10.04-.284A4.307 4.307 0 0 1 .72 18.592a62.39 62.39 0 0 1 0-14.184A4.307 4.307 0 0 1 4.877.592L17 .25zM5.333 16.917a1.25 1.25 0 1 0 0 2.5h23.334a1.25 1.25 0 0 0 0-2.5H5.333z" fill="#299764"/></svg>