<svg width="22" height="22" fill="none" xmlns="http://www.w3.org/2000/svg"><path fill-rule="evenodd" clip-rule="evenodd" d="M21.276 11.239c0-.745-.067-1.46-.19-2.148h-9.89v4.061h5.651a4.83 4.83 0 0 1-2.095 3.17v2.634h3.393c1.986-1.828 3.131-4.52 3.131-7.717z" fill="#4285F4"/><path fill-rule="evenodd" clip-rule="evenodd" d="M11.196 21.5c2.835 0 5.211-.94 6.949-2.544l-3.394-2.634c-.94.63-2.143 1.002-3.555 1.002-2.735 0-5.05-1.847-5.876-4.33H1.812v2.721a10.496 10.496 0 0 0 9.384 5.785z" fill="#34A853"/><path fill-rule="evenodd" clip-rule="evenodd" d="M5.321 12.995A6.312 6.312 0 0 1 4.991 11c0-.692.12-1.365.33-1.995v-2.72H1.813A10.496 10.496 0 0 0 .696 11c0 1.694.406 3.298 1.117 4.715l3.508-2.72z" fill="#FBBC05"/><path fill-rule="evenodd" clip-rule="evenodd" d="M11.196 4.676c1.541 0 2.925.53 4.014 1.57l3.011-3.011C16.403 1.54 14.026.5 11.196.5a10.496 10.496 0 0 0-9.383 5.785l3.507 2.72c.826-2.482 3.14-4.329 5.876-4.329z" fill="#EA4335"/></svg>