<svg width="22" height="22" viewBox="0 0 22 22" fill="none" xmlns="http://www.w3.org/2000/svg">
<path fill-rule="evenodd" clip-rule="evenodd" d="M21.2763 11.2386C21.2763 10.494 21.2095 9.77809 21.0854 9.09082H11.1963V13.1524H16.8472C16.6038 14.4649 15.864 15.577 14.752 16.3215V18.9561H18.1454C20.1309 17.1281 21.2763 14.4363 21.2763 11.2386Z" fill="#4285F4"/>
<path fill-rule="evenodd" clip-rule="evenodd" d="M11.1957 21.4999C14.0307 21.4999 16.4075 20.5597 18.1448 18.956L14.7514 16.3215C13.8112 16.9515 12.6084 17.3237 11.1957 17.3237C8.46092 17.3237 6.14615 15.4767 5.32046 12.9949H1.8125V15.7153C3.54023 19.1469 7.09115 21.4999 11.1957 21.4999Z" fill="#34A853"/>
<path fill-rule="evenodd" clip-rule="evenodd" d="M5.32107 12.9949C5.11107 12.3649 4.99175 11.6919 4.99175 10.9999C4.99175 10.3078 5.11107 9.63489 5.32107 9.00488V6.28442H1.81311C1.10197 7.70193 0.696289 9.30557 0.696289 10.9999C0.696289 12.6942 1.10197 14.2979 1.81311 15.7154L5.32107 12.9949Z" fill="#FBBC05"/>
<path fill-rule="evenodd" clip-rule="evenodd" d="M11.1957 4.67615C12.7373 4.67615 14.1214 5.20592 15.2096 6.24638L18.2212 3.23478C16.4028 1.54046 14.0259 0.5 11.1957 0.5C7.09115 0.5 3.54023 2.85296 1.8125 6.28456L5.32046 9.00502C6.14615 6.52319 8.46092 4.67615 11.1957 4.67615Z" fill="#EA4335"/>
</svg>
