<svg width="16" height="16" fill="none" xmlns="http://www.w3.org/2000/svg"><path d="M7.313 14.417c0-.38.307-.688.687-.688h5.5a.23.23 0 0 0 .23-.229v-11a.23.23 0 0 0-.23-.23H8A.688.688 0 0 1 8 .897h5.5c.886 0 1.604.718 1.604 1.604v11c0 .886-.718 1.604-1.604 1.604H8a.688.688 0 0 1-.687-.687z" fill="#fff"/><path d="M.208 9.022c0 .507.41.917.917.917h4.451c.022.326.048.651.08.976l.027.28a.658.658 0 0 0 .939.53A15.44 15.44 0 0 0 11.1 8.481l.027-.028a.661.661 0 0 0 0-.915L11.1 7.51a15.44 15.44 0 0 0-4.478-3.244.658.658 0 0 0-.94.53l-.027.28c-.031.324-.058.65-.079.976h-4.45a.917.917 0 0 0-.918.917v2.053z" fill="#fff"/></svg>