<svg width="16" height="16" viewBox="0 0 16 16" fill="none" xmlns="http://www.w3.org/2000/svg">
<path d="M7.31266 14.4167C7.31266 14.037 7.62047 13.7292 8.00016 13.7292H13.5002C13.6267 13.7292 13.7293 13.6266 13.7293 13.5L13.7293 2.50004C13.7293 2.37348 13.6267 2.27087 13.5002 2.27087L8.00016 2.27087C7.62047 2.27087 7.31266 1.96307 7.31266 1.58337C7.31266 1.20368 7.62047 0.895874 8.00016 0.895874H13.5002C14.3861 0.895874 15.1043 1.61408 15.1043 2.50004V13.5C15.1043 14.386 14.3861 15.1042 13.5002 15.1042H8.00016C7.62047 15.1042 7.31266 14.7964 7.31266 14.4167Z" fill="white"/>
<path d="M0.208496 9.02233C0.208496 9.52859 0.618901 9.93899 1.12516 9.93899H5.57648C5.5975 10.2648 5.62382 10.5903 5.65542 10.9155L5.68261 11.1953C5.72682 11.6502 6.20987 11.9226 6.62202 11.7251C8.29761 10.9221 9.81449 9.82318 11.0997 8.48129L11.1272 8.45262C11.372 8.19699 11.372 7.79385 11.1272 7.53821L11.0997 7.50954C9.81449 6.16766 8.29761 5.06878 6.62202 4.26577C6.20987 4.06824 5.72682 4.34067 5.68261 4.79556L5.65542 5.07533C5.62382 5.40049 5.5975 5.72605 5.57648 6.05185L1.12516 6.05185C0.618902 6.05185 0.208496 6.46226 0.208496 6.96852V9.02233Z" fill="white"/>
</svg>
