<svg width="20" height="20" viewBox="0 0 20 20" fill="none" xmlns="http://www.w3.org/2000/svg">
<path fill-rule="evenodd" clip-rule="evenodd" d="M19.298 10.2159C19.298 9.54225 19.2375 8.89452 19.1253 8.27271H10.178V11.9475H15.2907C15.0705 13.135 14.4012 14.1411 13.395 14.8148V17.1984H16.4653C18.2616 15.5445 19.298 13.1091 19.298 10.2159Z" fill="#4285F4"/>
<path fill-rule="evenodd" clip-rule="evenodd" d="M10.1776 19.4999C12.7426 19.4999 14.8931 18.6493 16.4649 17.1984L13.3947 14.8147C12.544 15.3847 11.4558 15.7215 10.1776 15.7215C7.70329 15.7215 5.60897 14.0504 4.86192 11.8049H1.68805V14.2663C3.25123 17.3711 6.46397 19.4999 10.1776 19.4999Z" fill="#34A853"/>
<path fill-rule="evenodd" clip-rule="evenodd" d="M4.8623 11.805C4.6723 11.235 4.56435 10.6262 4.56435 10C4.56435 9.37388 4.6723 8.76501 4.8623 8.19501V5.73364H1.68844C1.04502 7.01615 0.677979 8.46706 0.677979 10C0.677979 11.533 1.04502 12.9839 1.68844 14.2664L4.8623 11.805Z" fill="#FBBC05"/>
<path fill-rule="evenodd" clip-rule="evenodd" d="M10.1776 4.27842C11.5724 4.27842 12.8247 4.75774 13.8092 5.6991L16.534 2.97432C14.8888 1.44137 12.7383 0.5 10.1776 0.5C6.46397 0.5 3.25123 2.62887 1.68805 5.73365L4.86192 8.19502C5.60897 5.94956 7.70329 4.27842 10.1776 4.27842Z" fill="#EA4335"/>
</svg>
