<svg width="16" height="16" viewBox="0 0 16 16" fill="none" xmlns="http://www.w3.org/2000/svg">
<path d="M8.00016 0.208374C3.69694 0.208374 0.208496 3.69682 0.208496 8.00004C0.208496 12.3033 3.69694 15.7917 8.00016 15.7917C12.0497 15.7917 15.3772 12.7028 15.7559 8.75239C15.7736 8.56853 15.6791 8.39205 15.5163 8.30475C15.3536 8.21744 15.1543 8.23636 15.0109 8.35274C14.2229 8.9922 13.2193 9.37504 12.1252 9.37504C9.59386 9.37504 7.54183 7.32301 7.54183 4.79171C7.54183 3.28828 8.26522 1.95392 9.38487 1.1174C9.53291 1.0068 9.60004 0.818108 9.55514 0.638852C9.51023 0.459597 9.36207 0.324843 9.17937 0.297093C8.79456 0.238644 8.40075 0.208374 8.00016 0.208374Z" fill="#555555"/>
</svg>
