<svg width="26" height="20" viewBox="0 0 26 20" fill="none" xmlns="http://www.w3.org/2000/svg">
<path fill-rule="evenodd" clip-rule="evenodd" d="M20.1249 7.0625C18.5344 7.0625 17.1605 8.17506 16.8299 9.73088L16.8022 9.86139C16.7173 10.261 16.7023 10.6724 16.758 11.0771L16.9492 12.468C16.8777 12.4766 16.8063 12.4856 16.7349 12.4949C15.6353 12.6377 14.8124 13.5744 14.8124 14.6832V17.5668C14.8124 18.6757 15.6353 19.6123 16.7349 19.7551C18.9855 20.0474 21.2644 20.0474 23.5149 19.7551C24.6145 19.6123 25.4374 18.6757 25.4374 17.5668V14.6832C25.4374 13.5744 24.6145 12.6377 23.5149 12.4949C23.4435 12.4856 23.3721 12.4766 23.3006 12.468L23.4919 11.0771C23.5475 10.6724 23.5326 10.261 23.4476 9.86139L23.4199 9.73088C23.0893 8.17506 21.7155 7.0625 20.1249 7.0625ZM21.43 12.3081L21.6344 10.8217C21.6605 10.6318 21.6535 10.4387 21.6136 10.2511L21.5859 10.1206C21.4393 9.43079 20.8301 8.9375 20.1249 8.9375C19.4197 8.9375 18.8106 9.43079 18.664 10.1206L18.6362 10.2511C18.5964 10.4387 18.5894 10.6318 18.6155 10.8217L18.8198 12.3081C19.6894 12.2649 20.5605 12.2649 21.43 12.3081Z" fill="black"/>
<path d="M22.8646 5.47618C22.8965 5.68614 22.6636 5.83784 22.4738 5.74263C21.7628 5.38602 20.9632 5.1875 20.1249 5.1875C17.649 5.1875 15.5105 6.91932 14.9959 9.34115L14.9681 9.47165C14.8692 9.93716 14.8323 10.413 14.8579 10.887C14.8683 11.0807 14.777 11.2664 14.6201 11.3805C13.5937 12.1271 12.9374 13.3365 12.9374 14.6832V16.4567C12.9374 16.6622 12.7719 16.8296 12.5663 16.8309C10.2296 16.8455 7.8925 16.7694 5.56025 16.6026L3.66774 16.4672C2.4571 16.3806 1.45854 15.4856 1.24039 14.2916C0.705826 11.3659 0.614309 8.37641 0.968912 5.42346L1.30952 2.58707C1.47393 1.2179 2.63547 0.1875 4.01447 0.1875H6.87893C8.11934 0.1875 9.12489 1.19305 9.12489 2.43346C9.12489 2.47443 9.1581 2.50765 9.19908 2.50765L20.0901 2.50765C21.4159 2.50765 22.5452 3.47099 22.7542 4.78021L22.8343 5.282C22.8446 5.3467 22.8547 5.41143 22.8646 5.47618Z" fill="black"/>
</svg>
