<svg width="26" height="28" viewBox="0 0 26 28" fill="none" xmlns="http://www.w3.org/2000/svg">
<path d="M14.9343 1.34507C13.7442 0.628466 12.2555 0.628467 11.0654 1.34507L10.2049 1.86322C8.11699 3.12046 5.77302 3.89194 3.34656 4.12055L2.80442 4.17162C1.73427 4.27244 0.916504 5.17088 0.916504 6.24577V8.98558C0.916504 13.6166 2.79664 18.0492 6.12623 21.268L11.5518 26.513C12.3594 27.2937 13.6403 27.2937 14.4478 26.513L19.8734 21.268C23.203 18.0492 25.0832 13.6166 25.0832 8.98558V6.24577C25.0832 5.17088 24.2654 4.27245 23.1953 4.17162L22.6531 4.12055C20.2266 3.89194 17.8827 3.12046 15.7948 1.86322L14.9343 1.34507Z" fill="#299764"/>
</svg>
