<svg width="124" height="20" viewBox="0 0 124 20" fill="none" xmlns="http://www.w3.org/2000/svg">
<path d="M10.7212 2.49688C10.4 1.94342 9.60079 1.94342 9.27964 2.49688L7.01793 6.39464C6.85928 6.66804 6.58507 6.85462 6.27252 6.90183L2.03393 7.54201C1.32203 7.64954 1.07231 8.54838 1.62673 9.00771L4.78431 11.6237C5.07659 11.8659 5.21402 12.2479 5.14302 12.6207L4.31705 16.9583C4.18648 17.644 4.9063 18.1768 5.52393 17.8516L9.5151 15.7501C9.81888 15.5901 10.182 15.5901 10.4857 15.7501L14.4769 17.8516C15.0945 18.1768 15.8144 17.644 15.6838 16.9583L14.8578 12.6207C14.7868 12.2479 14.9242 11.8659 15.2165 11.6237L18.3741 9.00771C18.9285 8.54838 18.6788 7.64954 17.9669 7.54201L13.7283 6.90183C13.4158 6.85462 13.1416 6.66804 12.9829 6.39464L10.7212 2.49688Z" fill="#299764"/>
<path d="M36.7212 2.49688C36.4 1.94342 35.6008 1.94342 35.2796 2.49688L33.0179 6.39464C32.8593 6.66804 32.5851 6.85462 32.2725 6.90183L28.0339 7.54201C27.322 7.64954 27.0723 8.54838 27.6267 9.00771L30.7843 11.6237C31.0766 11.8659 31.214 12.2479 31.143 12.6207L30.317 16.9583C30.1865 17.644 30.9063 18.1768 31.5239 17.8516L35.5151 15.7501C35.8189 15.5901 36.182 15.5901 36.4857 15.7501L40.4769 17.8516C41.0945 18.1768 41.8144 17.644 41.6838 16.9583L40.8578 12.6207C40.7868 12.2479 40.9242 11.8659 41.2165 11.6237L44.3741 9.00771C44.9285 8.54838 44.6788 7.64954 43.9669 7.54201L39.7283 6.90183C39.4158 6.85462 39.1416 6.66804 38.9829 6.39464L36.7212 2.49688Z" fill="#299764"/>
<path d="M62.7212 2.49688C62.4 1.94342 61.6008 1.94342 61.2796 2.49688L59.0179 6.39464C58.8593 6.66804 58.5851 6.85462 58.2725 6.90183L54.0339 7.54201C53.322 7.64954 53.0723 8.54838 53.6267 9.00771L56.7843 11.6237C57.0766 11.8659 57.214 12.2479 57.143 12.6207L56.317 16.9583C56.1865 17.644 56.9063 18.1768 57.5239 17.8516L61.5151 15.7501C61.8189 15.5901 62.182 15.5901 62.4857 15.7501L66.4769 17.8516C67.0945 18.1768 67.8144 17.644 67.6838 16.9583L66.8578 12.6207C66.7868 12.2479 66.9242 11.8659 67.2165 11.6237L70.3741 9.00771C70.9285 8.54838 70.6788 7.64954 69.9669 7.54201L65.7283 6.90183C65.4158 6.85462 65.1416 6.66804 64.9829 6.39464L62.7212 2.49688Z" fill="#299764"/>
<path d="M88.7212 2.49688C88.4 1.94342 87.6008 1.94342 87.2796 2.49688L85.0179 6.39464C84.8593 6.66804 84.5851 6.85462 84.2725 6.90183L80.0339 7.54201C79.322 7.64954 79.0723 8.54838 79.6267 9.00771L82.7843 11.6237C83.0766 11.8659 83.214 12.2479 83.143 12.6207L82.317 16.9583C82.1865 17.644 82.9063 18.1768 83.5239 17.8516L87.5151 15.7501C87.8189 15.5901 88.182 15.5901 88.4857 15.7501L92.4769 17.8516C93.0945 18.1768 93.8144 17.644 93.6838 16.9583L92.8578 12.6207C92.7868 12.2479 92.9242 11.8659 93.2165 11.6237L96.3741 9.00771C96.9285 8.54838 96.6788 7.64954 95.9669 7.54201L91.7283 6.90183C91.4158 6.85462 91.1416 6.66804 90.9829 6.39464L88.7212 2.49688Z" fill="#299764"/>
<path d="M114.721 2.49688C114.4 1.94342 113.601 1.94342 113.28 2.49688L111.018 6.39464C110.859 6.66804 110.585 6.85462 110.273 6.90183L106.034 7.54201C105.322 7.64954 105.072 8.54838 105.627 9.00771L108.784 11.6237C109.077 11.8659 109.214 12.2479 109.143 12.6207L108.317 16.9583C108.186 17.644 108.906 18.1768 109.524 17.8516L113.515 15.7501C113.819 15.5901 114.182 15.5901 114.486 15.7501L118.477 17.8516C119.095 18.1768 119.814 17.644 119.684 16.9583L118.858 12.6207C118.787 12.2479 118.924 11.8659 119.217 11.6237L122.374 9.00771C122.929 8.54838 122.679 7.64954 121.967 7.54201L117.728 6.90183C117.416 6.85462 117.142 6.66804 116.983 6.39464L114.721 2.49688Z" fill="#299764"/>
</svg>
