<svg width="124" height="20" fill="none" xmlns="http://www.w3.org/2000/svg"><path d="M10.721 2.497a.833.833 0 0 0-1.441 0L7.018 6.395c-.159.273-.433.46-.745.507l-4.24.64a.833.833 0 0 0-.406 1.466l3.157 2.616c.293.242.43.624.359.997l-.826 4.337a.833.833 0 0 0 1.207.894l3.991-2.102c.304-.16.667-.16.97 0l3.992 2.102a.833.833 0 0 0 1.207-.894l-.826-4.337a1.042 1.042 0 0 1 .358-.997l3.158-2.616a.833.833 0 0 0-.407-1.466l-4.239-.64a1.042 1.042 0 0 1-.745-.507L10.72 2.497zM36.721 2.497a.833.833 0 0 0-1.441 0l-2.262 3.898c-.159.273-.433.46-.745.507l-4.24.64a.833.833 0 0 0-.406 1.466l3.157 2.616c.293.242.43.624.359.997l-.826 4.337a.833.833 0 0 0 1.207.894l3.991-2.102c.304-.16.667-.16.97 0l3.992 2.102a.833.833 0 0 0 1.207-.894l-.826-4.337a1.042 1.042 0 0 1 .359-.997l3.157-2.616a.833.833 0 0 0-.407-1.466l-4.239-.64a1.042 1.042 0 0 1-.745-.507L36.72 2.497zM62.721 2.497a.833.833 0 0 0-1.441 0l-2.262 3.898c-.159.273-.433.46-.745.507l-4.24.64a.833.833 0 0 0-.406 1.466l3.157 2.616c.293.242.43.624.359.997l-.826 4.337a.833.833 0 0 0 1.207.894l3.991-2.102c.304-.16.667-.16.97 0l3.992 2.102a.833.833 0 0 0 1.207-.894l-.826-4.337a1.042 1.042 0 0 1 .358-.997l3.158-2.616a.833.833 0 0 0-.407-1.466l-4.239-.64a1.042 1.042 0 0 1-.745-.507L62.72 2.497zM88.721 2.497a.833.833 0 0 0-1.441 0l-2.262 3.898c-.159.273-.433.46-.746.507l-4.238.64a.833.833 0 0 0-.407 1.466l3.157 2.616c.293.242.43.624.359.997l-.826 4.337a.833.833 0 0 0 1.207.894l3.991-2.102c.304-.16.667-.16.97 0l3.992 2.102a.833.833 0 0 0 1.207-.894l-.826-4.337a1.042 1.042 0 0 1 .358-.997l3.158-2.616a.833.833 0 0 0-.407-1.466l-4.239-.64a1.042 1.042 0 0 1-.745-.507L88.72 2.497zM114.721 2.497a.833.833 0 0 0-1.441 0l-2.262 3.898c-.159.273-.433.46-.745.507l-4.239.64a.833.833 0 0 0-.407 1.466l3.157 2.616c.293.242.43.624.359.997l-.826 4.337a.833.833 0 0 0 1.207.894l3.991-2.102c.304-.16.667-.16.971 0l3.991 2.102a.833.833 0 0 0 1.207-.894l-.826-4.337a1.04 1.04 0 0 1 .359-.997l3.157-2.616a.833.833 0 0 0-.407-1.466l-4.239-.64a1.043 1.043 0 0 1-.745-.507l-2.262-3.898z" fill="#299764"/></svg>