<svg width="20" height="20" viewBox="0 0 20 20" fill="none" xmlns="http://www.w3.org/2000/svg">
<path d="M10 0.145752C10.3797 0.145752 10.6875 0.453556 10.6875 0.833252V1.74992C10.6875 2.12961 10.3797 2.43742 10 2.43742C9.62034 2.43742 9.31254 2.12961 9.31254 1.74992V0.833252C9.31254 0.453556 9.62034 0.145752 10 0.145752Z" fill="white"/>
<path d="M10 4.72909C7.08904 4.72909 4.72921 7.08892 4.72921 9.99992C4.72921 12.9109 7.08904 15.2708 10 15.2708C12.911 15.2708 15.2709 12.9109 15.2709 9.99992C15.2709 7.08892 12.911 4.72909 10 4.72909Z" fill="white"/>
<path d="M4.00438 3.03199C3.73589 2.76351 3.30059 2.76351 3.03211 3.03199C2.76362 3.30048 2.76362 3.73578 3.03211 4.00426L3.68029 4.65244C3.94877 4.92093 4.38407 4.92093 4.65256 4.65244C4.92104 4.38396 4.92104 3.94866 4.65256 3.68017L4.00438 3.03199Z" fill="white"/>
<path d="M19.8542 9.99992C19.8542 10.3796 19.5464 10.6874 19.1667 10.6874H18.25C17.8703 10.6874 17.5625 10.3796 17.5625 9.99992C17.5625 9.62022 17.8703 9.31242 18.25 9.31242H19.1667C19.5464 9.31242 19.8542 9.62022 19.8542 9.99992Z" fill="white"/>
<path d="M16.968 4.00425C17.2365 3.73577 17.2365 3.30047 16.968 3.03198C16.6995 2.7635 16.2642 2.7635 15.9957 3.03198L15.3475 3.68016C15.079 3.94865 15.079 4.38395 15.3475 4.65244C15.616 4.92092 16.0513 4.92092 16.3198 4.65244L16.968 4.00425Z" fill="white"/>
<path d="M10 17.5624C10.3797 17.5624 10.6875 17.8702 10.6875 18.2499V19.1666C10.6875 19.5463 10.3797 19.8541 10 19.8541C9.62034 19.8541 9.31254 19.5463 9.31254 19.1666V18.2499C9.31254 17.8702 9.62034 17.5624 10 17.5624Z" fill="white"/>
<path d="M16.3198 15.3474C16.0514 15.0789 15.6161 15.0789 15.3476 15.3474C15.0791 15.6159 15.0791 16.0512 15.3476 16.3197L15.9958 16.9679C16.2642 17.2363 16.6995 17.2363 16.968 16.9679C17.2365 16.6994 17.2365 16.2641 16.968 15.9956L16.3198 15.3474Z" fill="white"/>
<path d="M2.43754 9.99992C2.43754 10.3796 2.12974 10.6874 1.75004 10.6874H0.833374C0.453678 10.6874 0.145874 10.3796 0.145874 9.99992C0.145874 9.62022 0.453678 9.31242 0.833374 9.31242H1.75004C2.12974 9.31242 2.43754 9.62022 2.43754 9.99992Z" fill="white"/>
<path d="M4.6525 16.3197C4.92098 16.0512 4.92098 15.6159 4.6525 15.3474C4.38401 15.0789 3.94871 15.0789 3.68023 15.3474L3.03204 15.9956C2.76356 16.2641 2.76356 16.6994 3.03204 16.9679C3.30053 17.2363 3.73583 17.2363 4.00432 16.9679L4.6525 16.3197Z" fill="white"/>
</svg>
