<svg width="33" height="30" fill="none" xmlns="http://www.w3.org/2000/svg"><path fill-rule="evenodd" clip-rule="evenodd" d="m32.017 11.952.005 6.038c-.043.576-.098 1.15-.165 1.724a2.12 2.12 0 0 1-1.87 1.842c-3.067.342-6.24.342-9.306 0a2.12 2.12 0 0 1-1.87-1.842 40.573 40.573 0 0 1 0-9.427 2.12 2.12 0 0 1 1.87-1.843 42.242 42.242 0 0 1 9.305 0 2.12 2.12 0 0 1 1.871 1.842c.065.555.118 1.11.16 1.666zm-6.683.548a2.5 2.5 0 1 0 0 5 2.5 2.5 0 0 0 0-5z" fill="#299764"/><path d="M31.006 5.066c.26.449-.227.952-.742.894a44.742 44.742 0 0 0-9.86 0c-2.116.236-3.827 1.902-4.077 4.036a43.07 43.07 0 0 0 0 10.008c.25 2.134 1.96 3.8 4.076 4.036 3.25.363 6.61.363 9.861 0 .518-.058 1.009.448.747.9a8.285 8.285 0 0 1-6.3 4.082l-1.086.115a74.412 74.412 0 0 1-16.593-.114l-.72-.086a6.552 6.552 0 0 1-5.72-5.64 62.735 62.735 0 0 1 0-16.594 6.552 6.552 0 0 1 5.72-5.64l.72-.085A74.417 74.417 0 0 1 23.625.863l1.087.115c2.69.283 5 1.847 6.294 4.088z" fill="#299764"/></svg>