<svg width="33" height="30" viewBox="0 0 33 30" fill="none" xmlns="http://www.w3.org/2000/svg">
<path fill-rule="evenodd" clip-rule="evenodd" d="M32.0172 11.9522L32.0215 17.9903C31.979 18.5655 31.9242 19.1401 31.8571 19.7136C31.7449 20.6726 30.9654 21.4461 29.9864 21.5556C26.9201 21.8983 23.7471 21.8983 20.6808 21.5556C19.7018 21.4461 18.9222 20.6726 18.8101 19.7136C18.4438 16.5819 18.4438 13.4182 18.8101 10.2865C18.9222 9.32747 19.7018 8.5539 20.6808 8.44448C23.7471 8.10178 26.9201 8.10178 29.9864 8.44448C30.9654 8.5539 31.7449 9.32747 31.8571 10.2865C31.9219 10.8408 31.9753 11.3962 32.0172 11.9522ZM25.3336 12.5C23.9529 12.5 22.8336 13.6193 22.8336 15C22.8336 16.3807 23.9529 17.5 25.3336 17.5C26.7143 17.5 27.8336 16.3807 27.8336 15C27.8336 13.6193 26.7143 12.5 25.3336 12.5Z" fill="#299764"/>
<path d="M31.0062 5.06622C31.2654 5.51499 30.7791 6.01751 30.264 5.95995C27.0132 5.59663 23.6539 5.59663 20.4031 5.95995C18.2876 6.1964 16.5766 7.8623 16.327 9.99607C15.9381 13.3207 15.9381 16.6793 16.327 20.004C16.5766 22.1377 18.2875 23.8036 20.4031 24.0401C23.6539 24.4034 27.0132 24.4034 30.264 24.0401C30.7825 23.9821 31.2728 24.4882 31.0112 24.9394C29.7135 27.1775 27.4 28.7395 24.7116 29.0224L23.6252 29.1367C18.1071 29.7174 12.5414 29.6791 7.03177 29.0225L6.31187 28.9367C3.34166 28.5828 0.988241 26.2622 0.592622 23.2973C-0.142202 17.7902 -0.142202 12.2099 0.592622 6.70277C0.988241 3.73783 3.34166 1.41724 6.31186 1.0633L7.03176 0.97751C12.5413 0.320967 18.1071 0.282675 23.6252 0.863349L24.7116 0.977675C27.4022 1.26081 29.7121 2.82516 31.0062 5.06622Z" fill="#299764"/>
</svg>
