<svg width="49" height="44" viewBox="0 0 49 44" fill="none" xmlns="http://www.w3.org/2000/svg">
<path fill-rule="evenodd" clip-rule="evenodd" d="M48.5251 17.4282L48.5315 26.4854C48.4677 27.3483 48.3856 28.2101 48.2849 29.0703C48.1167 30.5088 46.9473 31.6692 45.4788 31.8333C40.8794 32.3474 36.1199 32.3474 31.5205 31.8333C30.052 31.6692 28.8826 30.5089 28.7144 29.0703C28.165 24.3728 28.165 19.6273 28.7144 14.9297C28.8826 13.4912 30.052 12.3309 31.5205 12.1667C36.1199 11.6527 40.8794 11.6527 45.4788 12.1667C46.9473 12.3309 48.1167 13.4912 48.2849 14.9297C48.3822 15.7612 48.4622 16.5943 48.5251 17.4282ZM38.4997 18.25C36.4286 18.25 34.7497 19.929 34.7497 22C34.7497 24.0711 36.4286 25.75 38.4997 25.75C40.5707 25.75 42.2497 24.0711 42.2497 22C42.2497 19.929 40.5707 18.25 38.4997 18.25Z" fill="white"/>
<path d="M47.0086 7.09932C47.3974 7.77248 46.6678 8.52627 45.8953 8.43993C41.0191 7.89494 35.9802 7.89494 31.104 8.43993C27.9306 8.7946 25.3641 11.2935 24.9898 14.4941C24.4065 19.4811 24.4065 24.519 24.9898 29.506C25.3641 32.7066 27.9306 35.2055 31.104 35.5601C35.9802 36.1051 41.0191 36.1051 45.8953 35.5601C46.673 35.4732 47.4085 36.2322 47.016 36.9092C45.0695 40.2662 41.5993 42.6092 37.5667 43.0336L35.937 43.205C27.6599 44.0761 19.3113 44.0186 11.0469 43.0338L9.96707 42.9051C5.51176 42.3742 1.98163 38.8933 1.3882 34.4459C0.285964 26.1853 0.285964 17.8148 1.3882 9.55416C1.98163 5.10674 5.51175 1.62586 9.96706 1.09494L11.0469 0.966265C19.3113 -0.0185496 27.6599 -0.0759873 35.937 0.795023L37.5667 0.966513C41.6026 1.39122 45.0675 3.73775 47.0086 7.09932Z" fill="white"/>
</svg>
