<svg width="18" height="25" viewBox="0 0 18 25" fill="none" xmlns="http://www.w3.org/2000/svg">
<path fill-rule="evenodd" clip-rule="evenodd" d="M12.1188 0.0624862L12.1132 0.0624695H5.88768L5.88203 0.0624862H4.62545C4.10768 0.0624862 3.68795 0.482219 3.68795 0.999986C3.68795 1.51775 4.10768 1.93749 4.62545 1.93749H4.95018V8.26387C-0.614455 10.8944 -1.41835 18.5649 3.58319 22.2744L3.95194 22.5479C6.95028 24.7716 11.0506 24.7716 14.0489 22.5479L14.4177 22.2744C19.4192 18.5649 18.6153 10.8944 13.0507 8.26387V1.93749H13.3755C13.8932 1.93749 14.313 1.51775 14.313 0.999986C14.313 0.482219 13.8932 0.0624862 13.3755 0.0624862H12.1188ZM3.87152 11.3125H14.1293C13.564 10.7185 12.8641 10.2196 12.0349 9.86215C11.5134 9.63732 11.1757 9.12387 11.1757 8.55601V1.93749H6.82518V8.55601C6.82518 9.12387 6.48741 9.63732 5.96595 9.86215C5.13674 10.2196 4.43681 10.7185 3.87152 11.3125ZM6.50045 17.25C5.81009 17.25 5.25045 17.8096 5.25045 18.5C5.25045 19.1903 5.81009 19.75 6.50045 19.75C7.19081 19.75 7.75045 19.1903 7.75045 18.5C7.75045 17.8096 7.19081 17.25 6.50045 17.25ZM9.00045 16C9.00045 15.3096 9.56009 14.75 10.2505 14.75C10.9408 14.75 11.5005 15.3096 11.5005 16C11.5005 16.6903 10.9408 17.25 10.2505 17.25C9.56009 17.25 9.00045 16.6903 9.00045 16Z" fill="white"/>
</svg>
