<svg width="14" height="18" viewBox="0 0 14 18" fill="none" xmlns="http://www.w3.org/2000/svg">
<path fill-rule="evenodd" clip-rule="evenodd" d="M8.87533 1.08333C8.87533 0.968274 8.78205 0.875 8.66699 0.875H2.83366C1.56801 0.875 0.541992 1.90102 0.541992 3.16667V14.8333C0.541992 16.099 1.56801 17.125 2.83366 17.125H11.167C12.4326 17.125 13.4587 16.099 13.4587 14.8333V6.62255C13.4587 6.50749 13.3654 6.41422 13.2503 6.41422H9.50033C9.15515 6.41422 8.87533 6.13439 8.87533 5.78922V1.08333ZM7.00033 7.33333C6.07985 7.33333 5.33366 8.07953 5.33366 9C5.33366 9.92047 6.07985 10.6667 7.00033 10.6667C7.9208 10.6667 8.66699 9.92047 8.66699 9C8.66699 8.07953 7.9208 7.33333 7.00033 7.33333ZM3.66699 14.4167C3.66699 13.036 4.78628 11.9167 6.16699 11.9167H7.83366C9.21437 11.9167 10.3337 13.036 10.3337 14.4167C10.3337 14.8769 9.96056 15.25 9.50033 15.25H4.50033C4.04009 15.25 3.66699 14.8769 3.66699 14.4167Z" fill="white"/>
<path d="M10.1253 1.35345C10.1253 1.1997 10.2859 1.10208 10.4055 1.19866C10.5062 1.28 10.5968 1.3753 10.6741 1.48296L13.1851 4.98121C13.2422 5.06085 13.1803 5.16422 13.0823 5.16422H10.3337C10.2186 5.16422 10.1253 5.07094 10.1253 4.95588V1.35345Z" fill="white"/>
</svg>
