<svg width="16" height="16" viewBox="0 0 16 16" fill="none" xmlns="http://www.w3.org/2000/svg">
<path d="M7.99967 0.208374C3.69646 0.208374 0.208008 3.69682 0.208008 8.00004C0.208008 12.3033 3.69646 15.7917 7.99967 15.7917C12.0492 15.7917 15.3767 12.7028 15.7555 8.75239C15.7731 8.56853 15.6786 8.39205 15.5159 8.30475C15.3531 8.21744 15.1538 8.23636 15.0104 8.35274C14.2224 8.9922 13.2189 9.37504 12.1247 9.37504C9.59337 9.37504 7.54134 7.32301 7.54134 4.79171C7.54134 3.28828 8.26473 1.95392 9.38438 1.1174C9.53242 1.0068 9.59956 0.818108 9.55465 0.638852C9.50974 0.459597 9.36158 0.324843 9.17888 0.297093C8.79407 0.238644 8.40026 0.208374 7.99967 0.208374Z" fill="white"/>
</svg>
