<svg width="14" height="14" viewBox="0 0 14 14" fill="none" xmlns="http://www.w3.org/2000/svg">
<path d="M7.00033 0.125C5.27444 0.125 3.87533 1.52411 3.87533 3.25C3.87533 4.97589 5.27444 6.375 7.00033 6.375C8.72622 6.375 10.1253 4.97589 10.1253 3.25C10.1253 1.52411 8.72622 0.125 7.00033 0.125Z" fill="white"/>
<path d="M3.66699 8.04167C1.9411 8.04167 0.541992 9.44078 0.541992 11.1667V12.1569C0.541992 12.7846 0.996895 13.3198 1.61639 13.4209C5.18207 14.0031 8.81858 14.0031 12.3843 13.4209C13.0038 13.3198 13.4587 12.7846 13.4587 12.1569V11.1667C13.4587 9.44078 12.0595 8.04167 10.3337 8.04167H10.0496C9.89586 8.04167 9.74308 8.06598 9.59693 8.1137L8.87567 8.34921C7.6571 8.74712 6.34355 8.74712 5.12498 8.34921L4.40372 8.1137C4.25757 8.06598 4.10479 8.04167 3.95105 8.04167H3.66699Z" fill="white"/>
</svg>
