<svg width="52" height="43" viewBox="0 0 52 43" fill="none" xmlns="http://www.w3.org/2000/svg">
<path fill-rule="evenodd" clip-rule="evenodd" d="M26.0003 0.374237L44.1844 0.88837C47.3974 0.979215 50.055 3.41835 50.4204 6.61185C51.2292 13.6809 51.2292 20.8191 50.4204 27.8881C50.055 31.0816 47.3974 33.5208 44.1844 33.6116L29.1253 34.0374V39.125H38.5003C39.5359 39.125 40.3753 39.9645 40.3753 41C40.3753 42.0355 39.5359 42.875 38.5003 42.875H13.5003C12.4648 42.875 11.6253 42.0355 11.6253 41C11.6253 39.9645 12.4648 39.125 13.5003 39.125H22.8753V34.0374L7.81623 33.6116C4.60318 33.5208 1.94563 31.0816 1.58024 27.8881C0.771429 20.8191 0.771429 13.6809 1.58024 6.61185C1.94563 3.41835 4.60318 0.979215 7.81623 0.88837L26.0003 0.374237ZM8.50034 25.375C7.4648 25.375 6.62534 26.2145 6.62534 27.25C6.62534 28.2855 7.4648 29.125 8.50034 29.125H43.5003C44.5359 29.125 45.3753 28.2855 45.3753 27.25C45.3753 26.2145 44.5359 25.375 43.5003 25.375H8.50034Z" fill="white"/>
</svg>
